<svg width="26" height="40" viewBox="0 0 26 40" fill="none" xmlns="http://www.w3.org/2000/svg">
<path d="M0 7C0 3.41015 2.91015 0.5 6.5 0.5H13V13.5H6.5C2.91015 13.5 0 10.5899 0 7Z" fill="#F44E1E"/>
<path d="M0 20C0 16.4101 2.91015 13.5 6.5 13.5H13V26.5H6.5C2.91015 26.5 0 23.5899 0 20Z" fill="#A35AFF"/>
<path d="M0 33C0 29.4101 2.91015 26.5 6.5 26.5H13V33C13 36.5899 10.0899 39.5 6.5 39.5C2.91015 39.5 0 36.5899 0 33Z" fill="#0ACE82"/>
<path d="M13 0.5H19.5C23.0899 0.5 26 3.41015 26 7C26 10.5899 23.0899 13.5 19.5 13.5H13V0.5Z" fill="#FF7261"/>
<rect x="13" y="13.5" width="13" height="13" rx="6.5" fill="#19BCFF"/>
</svg>
